<mxfile host="app.diagrams.net" modified="2024-06-20T16:51:33.616Z" agent="Mozilla/5.0 (X11; Ubuntu; Linux x86_64; rv:126.0) Gecko/20100101 Firefox/126.0" version="24.5.5" etag="aTfymjEZuh_a7me7D_6H" type="github">
  <diagram name="Page-1" id="NhDz3uZGCUFa12JibLDZ">
    <mxGraphModel>
      <root>
        <mxCell id="0" />
        <mxCell id="1" parent="0" />
      </root>
    </mxGraphModel>
  </diagram>
</mxfile>
